<mxfile host="65bd71144e">
    <diagram id="k5hZaZTh_4cD5fyDHGei" name="Page-1">
        <mxGraphModel dx="972" dy="692" grid="1" gridSize="10" guides="1" tooltips="1" connect="1" arrows="1" fold="1" page="1" pageScale="1" pageWidth="800" pageHeight="96" math="0" shadow="0">
            <root>
                <mxCell id="0"/>
                <mxCell id="1" parent="0"/>
                <mxCell id="50" value="loop[boadsize]" style="shape=umlFrame;whiteSpace=wrap;html=1;width=90;height=30;" vertex="1" parent="1">
                    <mxGeometry x="280" y="960" width="440" height="400" as="geometry"/>
                </mxCell>
                <mxCell id="22" value="&lt;p style=&quot;margin: 0px ; margin-top: 6px ; text-align: center&quot;&gt;&lt;b&gt;Gomoku&lt;/b&gt;&lt;/p&gt;&lt;hr&gt;&lt;p style=&quot;margin: 0px ; margin-left: 8px&quot;&gt;- previousBoard:Array&amp;lt;number&amp;gt;[]&lt;br&gt;- currentBoard:Array&amp;lt;number&amp;gt;[]&lt;/p&gt;&lt;p style=&quot;margin: 0px ; margin-left: 8px&quot;&gt;- isPlayer1Turn: boolean&lt;/p&gt;&lt;p style=&quot;margin: 0px ; margin-left: 8px&quot;&gt;&lt;br&gt;&lt;/p&gt;&lt;p style=&quot;margin: 0px ; margin-left: 8px&quot;&gt;- checkGameWinner: void&lt;/p&gt;&lt;p style=&quot;margin: 0px ; margin-left: 8px&quot;&gt;&lt;br&gt;&lt;/p&gt;&lt;p style=&quot;margin: 0px ; margin-left: 8px&quot;&gt;- GomokuBoard:ReactElement&lt;/p&gt;" style="align=left;overflow=fill;html=1;dropTarget=0;" parent="1" vertex="1">
                    <mxGeometry x="20" y="40" width="200" height="200" as="geometry"/>
                </mxCell>
                <mxCell id="23" value="" style="shape=component;jettyWidth=8;jettyHeight=4;" parent="22" vertex="1">
                    <mxGeometry x="1" width="20" height="20" relative="1" as="geometry">
                        <mxPoint x="-24" y="4" as="offset"/>
                    </mxGeometry>
                </mxCell>
                <mxCell id="26" value="" style="rounded=0;whiteSpace=wrap;html=1;" vertex="1" parent="1">
                    <mxGeometry x="240" y="40" width="520" height="400" as="geometry"/>
                </mxCell>
                <mxCell id="27" value="" style="rounded=0;whiteSpace=wrap;html=1;" vertex="1" parent="1">
                    <mxGeometry x="240" y="40" width="520" height="80" as="geometry"/>
                </mxCell>
                <mxCell id="28" value="ゲームエリア" style="rounded=0;whiteSpace=wrap;html=1;" vertex="1" parent="1">
                    <mxGeometry x="360" y="150" width="280" height="280" as="geometry"/>
                </mxCell>
                <mxCell id="29" value="一覧へ" style="rounded=0;whiteSpace=wrap;html=1;" vertex="1" parent="1">
                    <mxGeometry x="670" y="90" width="80" height="20" as="geometry"/>
                </mxCell>
                <mxCell id="30" value="タイトル" style="rounded=0;whiteSpace=wrap;html=1;" vertex="1" parent="1">
                    <mxGeometry x="360" y="50" width="280" height="60" as="geometry"/>
                </mxCell>
                <mxCell id="32" value="手番" style="rounded=0;whiteSpace=wrap;html=1;" vertex="1" parent="1">
                    <mxGeometry x="430" y="124" width="140" height="20" as="geometry"/>
                </mxCell>
                <mxCell id="33" value=":Gomoku" style="shape=umlLifeline;perimeter=lifelinePerimeter;whiteSpace=wrap;html=1;container=1;collapsible=0;recursiveResize=0;outlineConnect=0;" vertex="1" parent="1">
                    <mxGeometry x="120" y="600" width="120" height="1080" as="geometry"/>
                </mxCell>
                <mxCell id="41" value="" style="html=1;points=[];perimeter=orthogonalPerimeter;" vertex="1" parent="33">
                    <mxGeometry x="50" y="120" width="20" height="140" as="geometry"/>
                </mxCell>
                <mxCell id="34" value=":GomokuBoard" style="shape=umlLifeline;perimeter=lifelinePerimeter;whiteSpace=wrap;html=1;container=1;collapsible=0;recursiveResize=0;outlineConnect=0;" vertex="1" parent="1">
                    <mxGeometry x="280" y="600" width="120" height="1080" as="geometry"/>
                </mxCell>
                <mxCell id="44" value="" style="html=1;points=[];perimeter=orthogonalPerimeter;" vertex="1" parent="34">
                    <mxGeometry x="50" y="240" width="20" height="760" as="geometry"/>
                </mxCell>
                <mxCell id="64" value="return" style="html=1;verticalAlign=bottom;endArrow=open;dashed=1;endSize=8;" edge="1" parent="34">
                    <mxGeometry relative="1" as="geometry">
                        <mxPoint x="-100" y="1000" as="targetPoint"/>
                        <mxPoint x="50" y="1000" as="sourcePoint"/>
                        <mxPoint as="offset"/>
                    </mxGeometry>
                </mxCell>
                <mxCell id="35" value=":GomokuGrid" style="shape=umlLifeline;perimeter=lifelinePerimeter;whiteSpace=wrap;html=1;container=1;collapsible=0;recursiveResize=0;outlineConnect=0;" vertex="1" parent="1">
                    <mxGeometry x="440" y="600" width="120" height="1080" as="geometry"/>
                </mxCell>
                <mxCell id="62" value="" style="html=1;points=[];perimeter=orthogonalPerimeter;" vertex="1" parent="35">
                    <mxGeometry x="50" y="440" width="20" height="280" as="geometry"/>
                </mxCell>
                <mxCell id="36" value=":Atom" style="shape=umlLifeline;perimeter=lifelinePerimeter;whiteSpace=wrap;html=1;container=1;collapsible=0;recursiveResize=0;outlineConnect=0;" vertex="1" parent="1">
                    <mxGeometry x="600" y="600" width="120" height="1080" as="geometry"/>
                </mxCell>
                <mxCell id="37" value="" style="html=1;points=[];perimeter=orthogonalPerimeter;" vertex="1" parent="36">
                    <mxGeometry x="50" y="160" width="20" height="40" as="geometry"/>
                </mxCell>
                <mxCell id="47" value="" style="html=1;points=[];perimeter=orthogonalPerimeter;" vertex="1" parent="36">
                    <mxGeometry x="50" y="280" width="20" height="40" as="geometry"/>
                </mxCell>
                <mxCell id="40" value="" style="shape=umlLifeline;participant=umlActor;perimeter=lifelinePerimeter;whiteSpace=wrap;html=1;container=1;collapsible=0;recursiveResize=0;verticalAlign=top;spacingTop=36;outlineConnect=0;" vertex="1" parent="1">
                    <mxGeometry x="50" y="600" width="20" height="120" as="geometry"/>
                </mxCell>
                <mxCell id="42" value="render()" style="html=1;verticalAlign=bottom;startArrow=oval;endArrow=block;startSize=8;" edge="1" target="41" parent="1" source="40">
                    <mxGeometry relative="1" as="geometry">
                        <mxPoint x="110" y="720" as="sourcePoint"/>
                    </mxGeometry>
                </mxCell>
                <mxCell id="38" value="useRecoilValue()" style="html=1;verticalAlign=bottom;endArrow=block;entryX=0;entryY=0;" edge="1" target="37" parent="1" source="41">
                    <mxGeometry relative="1" as="geometry">
                        <mxPoint x="585" y="700" as="sourcePoint"/>
                    </mxGeometry>
                </mxCell>
                <mxCell id="39" value="return" style="html=1;verticalAlign=bottom;endArrow=open;dashed=1;endSize=8;exitX=0;exitY=0.95;" edge="1" source="37" parent="1">
                    <mxGeometry relative="1" as="geometry">
                        <mxPoint x="190" y="798" as="targetPoint"/>
                    </mxGeometry>
                </mxCell>
                <mxCell id="43" value="&lt;p style=&quot;margin:0px;margin-top:4px;text-align:center;text-decoration:underline;&quot;&gt;&lt;b&gt;Atom:Type&lt;/b&gt;&lt;/p&gt;&lt;hr&gt;&lt;p style=&quot;margin:0px;margin-left:8px;&quot;&gt;p1IsNext: boolean&lt;/p&gt;&lt;p style=&quot;margin:0px;margin-left:8px;&quot;&gt;previousBoard: Array&amp;lt;Array&amp;lt;number&amp;gt;&amp;gt;&lt;/p&gt;&lt;p style=&quot;margin:0px;margin-left:8px;&quot;&gt;currentBoard: Array&amp;lt;Array&amp;lt;number&amp;gt;&amp;gt;&lt;/p&gt;" style="verticalAlign=top;align=left;overflow=fill;fontSize=12;fontFamily=Helvetica;html=1;" vertex="1" parent="1">
                    <mxGeometry x="520" y="480" width="240" height="80" as="geometry"/>
                </mxCell>
                <mxCell id="45" value="render()" style="html=1;verticalAlign=bottom;startArrow=none;endArrow=block;rounded=1;strokeColor=default;startFill=0;" edge="1" target="44" parent="1" source="41">
                    <mxGeometry relative="1" as="geometry">
                        <mxPoint x="270" y="840" as="sourcePoint"/>
                    </mxGeometry>
                </mxCell>
                <mxCell id="48" value="useRecoilValue()" style="html=1;verticalAlign=bottom;endArrow=block;entryX=0;entryY=0;rounded=1;strokeColor=default;" edge="1" target="47" parent="1">
                    <mxGeometry x="0.0016" relative="1" as="geometry">
                        <mxPoint x="350" y="880" as="sourcePoint"/>
                        <mxPoint as="offset"/>
                    </mxGeometry>
                </mxCell>
                <mxCell id="49" value="return" style="html=1;verticalAlign=bottom;endArrow=open;dashed=1;endSize=8;exitX=0;exitY=0.95;rounded=1;strokeColor=default;" edge="1" source="47" parent="1" target="44">
                    <mxGeometry relative="1" as="geometry">
                        <mxPoint x="580" y="956" as="targetPoint"/>
                    </mxGeometry>
                </mxCell>
                <mxCell id="63" value="render(num)" style="html=1;verticalAlign=bottom;startArrow=none;endArrow=block;startSize=8;rounded=1;strokeColor=default;startFill=0;" edge="1" target="62" parent="1" source="44">
                    <mxGeometry relative="1" as="geometry">
                        <mxPoint x="430" y="1040" as="sourcePoint"/>
                        <Array as="points">
                            <mxPoint x="450" y="1040"/>
                        </Array>
                    </mxGeometry>
                </mxCell>
            </root>
        </mxGraphModel>
    </diagram>
</mxfile>